<?xml version="1.0" encoding="UTF-8"?>
<!-- Created with Inkscape (http://www.inkscape.org/) -->
<svg width="210mm" height="297mm" version="1.1" viewBox="0 0 210 297" xmlns="http://www.w3.org/2000/svg">
 <g transform="translate(0)">
  <path d="m74.216 58.174c-1.5366 0.0049-2.8616 1.829-2.8616 4.2103v0.37207c0 2.3813 1.2369 4.296 2.7735 4.2984l18.642 0.02937c1.5366 0.0024 2.7735-1.9171 2.7735-4.2984v-0.37207c0-2.3813-1.2369-4.3033-2.7735-4.2984z" fill="#333"/>
  <path d="m72.653 58.115h6.3854c0.7496 0 1.3531 1.9172 1.3531 4.2987v0.37169c0 2.3815-0.60347 4.2987-1.3531 4.2987h-6.3854c-0.7496 0-1.3531-1.9172-1.3531-4.2987v-0.37169c0-2.3815 0.60347-4.2987 1.3531-4.2987z" fill="#ff7f2a" stroke-linecap="round" stroke-miterlimit="4.2" stroke-width=".37461"/>
  <path d="m71.129 62.52a1.2607 4.4845 0 0 1 1.2738-4.4048 1.2607 4.4845 0 0 1 1.2473 4.4997 1.2607 4.4845 0 0 1-1.256 4.469 1.2607 4.4845 0 0 1-1.2652-4.4359" fill="#e6e6e6" stroke-linecap="round" stroke-miterlimit="4.2" stroke-width=".34792"/>
  <g>
   <path d="m-338.11 62.463a13.13 0.72727 0 0 1 13.267-0.71435 13.13 0.72727 0 0 1 12.991 0.72974 13.13 0.72727 0 0 1-13.082 0.72476 13.13 0.72727 0 0 1-13.178-0.7194" fill="#ececec"/>
   <g stroke-miterlimit="4.2">
    <path d="m70.833 62.584a0.77637 0.87764 0 0 1 0.78447-0.86205 0.77637 0.87764 0 0 1 0.76816 0.88062 0.77637 0.87764 0 0 1-0.77351 0.87461 0.77637 0.87764 0 0 1-0.77919-0.86814" fill="#f9f9f9" stroke="#b3b3b3" stroke-linecap="round" stroke-width=".082"/>
    <path d="m76.962 61.688v1.8228z" fill="#333" stroke="#333" stroke-width=".482"/>
    <path d="m77.874 62.6h-1.8228z" fill="#333" stroke="#333" stroke-width=".482"/>
   </g>
   <path d="m74.589 59.117c0.41118 0.45136 0.66621 1.0298 0.68876 1.6642h19.545c-0.02257-0.63443-0.27757-1.2129-0.68876-1.6642zm-1.8094 4.6787c-0.13749 0.01841-0.27788 0.028-0.421 0.02814h0.421zm-2.436 0.02605a1.3304 2.8329 0 0 0 0.0518 0.0021 1.3304 2.8329 0 0 0 0.03981-0.0021zm0.27485 3.48e-4c0.01676 0.0011 0.03384 0.0017 0.05072 0.0017h1.6835z" fill="#f9f9f9" opacity=".522"/>
  </g>
 </g>
</svg>
