<?xml version="1.0" encoding="UTF-8"?>
<!-- Created with Inkscape (http://www.inkscape.org/) -->
<svg width="210mm" height="297mm" version="1.1" viewBox="0 0 210 297" xmlns="http://www.w3.org/2000/svg">
 <g transform="translate(0)">
  <path transform="translate(12.623 -.81777)" d="m103.93 36.107c-10.542-4.6e-5 -19.088 8.5458-19.088 19.088 1.3e-5 4.512 1.5969 8.8475 4.46 12.263 0.93804 1.1189 2.1551 3.0438 2.5504 4.4506l2.5871 9.2081a3.4917 3.4917 37.153 0 0 3.3615 2.5472h12.257a3.4917 3.4917 142.85 0 0 3.3615-2.5472l2.5871-9.2081c0.39525-1.4068 1.6124-3.3317 2.5504-4.4506 2.8631-3.4151 4.46-7.7507 4.46-12.263 5e-5 -10.542-8.5458-19.088-19.088-19.088z" fill="#ececec" opacity=".84" stroke="#000" stroke-width=".2"/>
  <g fill="#999" stroke="#000">
   <g stroke-width=".1152">
    <rect x="109.08" y="84.436" width="14.956" height="2.6245" ry=".59892"/>
    <rect x="109.08" y="92.698" width="14.956" height="2.6245" ry=".59892"/>
    <rect x="109.08" y="88.567" width="14.956" height="2.6245" ry=".59892"/>
   </g>
   <path d="m110.65 96.83a7.7721 10.969 0 0 0 5.9025 3.8328 7.7721 10.969 0 0 0 5.9025-3.8328z" stroke-width=".115"/>
  </g>
  <path transform="translate(12.623 -.81777)" d="m103.93 36.107c-10.542-4.6e-5 -19.088 8.5458-19.088 19.088 1.3e-5 4.512 1.5969 8.8475 4.46 12.263 0.93804 1.1189 2.1551 3.0438 2.5504 4.4506l2.5871 9.2081a3.4917 3.4917 37.153 0 0 3.3615 2.5472h12.257a3.4917 3.4917 142.85 0 0 3.3615-2.5472l2.5871-9.2081c0.39525-1.4068 1.6124-3.3317 2.5504-4.4506 2.8631-3.4151 4.46-7.7507 4.46-12.263 5e-5 -10.542-8.5458-19.088-19.088-19.088z" fill="#ffdc50" opacity=".84" stroke="#000" stroke-width=".2"/>
  <g fill="#999" stroke="#000">
   <g stroke-width=".1152">
    <rect x="109.08" y="84.436" width="14.956" height="2.6245" ry=".59892"/>
    <rect x="109.08" y="92.698" width="14.956" height="2.6245" ry=".59892"/>
    <rect x="109.08" y="88.567" width="14.956" height="2.6245" ry=".59892"/>
   </g>
   <path d="m110.65 96.83a7.7721 10.969 0 0 0 5.9025 3.8328 7.7721 10.969 0 0 0 5.9025-3.8328z" stroke-width=".115"/>
  </g>
  <path d="m116.55 35.29c-0.38237 0-0.76215 0.0114-1.139 0.0336 10.012 0.58912 17.949 8.8947 17.949 19.054 0 4.512-1.5966 8.8478-4.4597 12.263-0.93803 1.1189-2.155 3.0436-2.5502 4.4504l-2.5874 9.2083a3.4917 3.4917 0 0 1-3.3616 2.5471h2.2779a3.4917 3.4917 0 0 0 3.3616-2.5471l2.5874-9.2083c0.39525-1.4068 1.6122-3.3315 2.5502-4.4504 2.8631-3.4151 4.4597-7.7509 4.4597-12.263 5e-5 -10.542-8.5458-19.088-19.088-19.088zm4.6013 49.147c0.3318 0 0.59892 0.26713 0.59892 0.59894v1.4268c0 0.3318-0.26712 0.59893-0.59892 0.59893h2.2779c0.3318 0 0.59892-0.26713 0.59892-0.59893v-1.4268c0-0.33181-0.26712-0.59894-0.59892-0.59894zm0 4.131c0.3318 0 0.59892 0.26713 0.59892 0.59893v1.4268c0 0.3318-0.26712 0.59893-0.59892 0.59893h2.2779c0.3318 0 0.59892-0.26713 0.59892-0.59893v-1.4268c0-0.3318-0.26712-0.59893-0.59892-0.59893zm0 4.131c0.3318 0 0.59892 0.26713 0.59892 0.59893v1.4268c0 0.33181-0.26712 0.59894-0.59892 0.59894h2.2779c0.3318 0 0.59892-0.26713 0.59892-0.59894v-1.4268c0-0.3318-0.26712-0.59893-0.59892-0.59893zm-0.97669 4.131a7.7721 10.969 0 0 1-4.7635 3.7145 7.7721 10.969 0 0 0 1.139 0.11834 7.7721 10.969 0 0 0 5.9025-3.8329z" fill="#1a1a1a" opacity=".25824" stroke="#000" stroke-width=".2"/>
  <path d="m115.19 39.765c-4.0153 0.23396-7.7528 2.15-10.314 5.2847s-3.7202 7.2059-3.2033 11.242a0.8383 0.8377 44.334 0 0 0.93846 0.72579 0.8383 0.8377 44.334 0 0 0.72516-0.93598c-0.45869-3.5818 0.57107-7.194 2.8396-9.9702s5.5674-4.4669 9.1126-4.6734a0.8383 0.8377 44.334 0 0 0.78826-0.8859 0.8383 0.8377 44.334 0 0-0.88643-0.78693z" fill="#fff" opacity=".84" stop-color="#000000" stroke-linecap="round"/>
  <g transform="translate(-14.805 -85.484)">
   <path d="m128 168.1 0.32182-8.4147-3.6352-18.154 2.3816-5.4606 2.3104 5.6002 3.7406 0.0152 2.4078-5.4652 2.3398 5.3104v1e-5l-3.3796 17.88 0.22029 8.6147" fill="none" stroke="#b3b3b3" stroke-linecap="square" stroke-miterlimit="4.2" stroke-width=".47701"/>
   <path d="m129.29 148.66c-0.0674 0-0.12144 0.054-0.12144 0.12144v0.89504c0 0.0674 0.054 0.12144 0.12144 0.12144h1.1193c-0.0599 0.01-0.10593 0.0752-0.10593 0.15451v10.592c-1.1452 0.29561-2.0212 1.9421-2.0211 3.929l-0.0651 3.8892 6.2999-0.0791-0.10387-3.8272c2.1e-4 -2.0548-0.94074-3.7436-2.1456-3.9398v-10.564c0-0.0793-0.0461-0.14441-0.10594-0.15451h1.095c0.0674 0 0.12144-0.054 0.12144-0.12144v-0.89504c0-0.0674-0.054-0.12144-0.12144-0.12144z" fill="#fea" opacity=".55094" stroke="#999" stroke-linecap="square" stroke-miterlimit="4.2" stroke-width=".1297"/>
   <g fill="none" stroke="#b3b3b3" stroke-linecap="round" stroke-linejoin="round">
    <path transform="scale(-1)" d="m-135.06-137.06a3.7726 13.863 0 0 1 3.7415-13.618 3.7726 13.863 0 0 1 3.8009 13.393" stroke-width=".1219"/>
    <path d="m134.66 136.97a0.4582 0.87723 0 0 1 0.46445-0.86161 0.4582 0.87723 0 0 1 0.45186 0.88584 0.4582 0.87723 0 0 1-0.46093 0.86853 0.4582 0.87723 0 0 1-0.45546-0.87906" stroke-width=".13289"/>
    <path d="m127.3 136.97a0.4582 0.87723 0 0 1 0.46445-0.86161 0.4582 0.87723 0 0 1 0.45186 0.88584 0.4582 0.87723 0 0 1-0.46093 0.86853 0.4582 0.87723 0 0 1-0.45545-0.87906" stroke-width=".13289"/>
   </g>
   <path d="m131.09 149.79c0.0677 0 0.12196 0.0697 0.12196 0.15607v10.564c1.2049 0.19619 2.1458 1.8856 2.1456 3.9404l0.10387 3.8272-5.2415 0.0651v0.0134l6.2999-0.0785-0.10387-3.8272c2.1e-4 -2.0547-0.94074-3.7442-2.1456-3.9404v-10.564c0-0.0864-0.0543-0.15607-0.12196-0.15607z" fill="#1a1a1a" opacity=".13082" stroke="#999" stroke-linecap="square" stroke-miterlimit="4.2" stroke-width=".1297"/>
   <path d="m132.8 148.66c0.0342 0.0135 0.0584 0.0472 0.0584 0.0863v0.67799c0 0.0511-0.0414 0.092-0.0925 0.092h-3.5946v0.16072c0 0.0674 0.054 0.12144 0.12144 0.12144h3.9667c0.0674 0 0.12144-0.054 0.12144-0.12144v-0.89504c0-0.0674-0.054-0.12195-0.12144-0.12195z" fill="#1a1a1a" opacity=".19874" stroke="#999" stroke-linecap="round" stroke-linejoin="round" stroke-width=".099359"/>
   <path d="m128.71 165.37a2.8914 4.9384 0 0 1 1.5853-4.3188" fill="none" opacity=".92453" stroke="#fff" stroke-linecap="round" stroke-miterlimit="4.2" stroke-width=".47914" style="mix-blend-mode:normal"/>
  </g>
 </g>
</svg>
