<?xml version="1.0" encoding="UTF-8"?>
<!-- Created with Inkscape (http://www.inkscape.org/) -->
<svg width="210mm" height="297mm" version="1.1" viewBox="0 0 210 297" xmlns="http://www.w3.org/2000/svg">
 <g transform="translate(0)">
  <path transform="translate(-.088633)" d="m103.93 36.107c-10.542-4.6e-5 -19.088 8.5458-19.088 19.088 1.3e-5 4.512 1.5969 8.8475 4.46 12.263 0.93804 1.1189 2.1551 3.0438 2.5504 4.4506l2.5871 9.2081a3.4917 3.4917 37.153 0 0 3.3615 2.5472h12.257a3.4917 3.4917 142.85 0 0 3.3615-2.5472l2.5871-9.2081c0.39525-1.4068 1.6124-3.3317 2.5504-4.4506 2.8631-3.4151 4.46-7.7507 4.46-12.263 5e-5 -10.542-8.5458-19.088-19.088-19.088z" fill="#ececec" opacity=".84" stroke="#000" stroke-width=".2"/>
  <g fill="#999" stroke="#000">
   <g stroke-width=".1152">
    <rect x="96.365" y="85.254" width="14.956" height="2.6245" ry=".59892"/>
    <rect x="96.365" y="93.516" width="14.956" height="2.6245" ry=".59892"/>
    <rect x="96.365" y="89.385" width="14.956" height="2.6245" ry=".59892"/>
   </g>
   <path d="m97.941 97.647a7.7721 10.969 0 0 0 5.9025 3.8328 7.7721 10.969 0 0 0 5.9025-3.8328z" stroke-width=".115"/>
  </g>
  <path transform="translate(-.088633)" d="m103.93 36.107c-10.542-4.6e-5 -19.088 8.5458-19.088 19.088 1.3e-5 4.512 1.5969 8.8475 4.46 12.263 0.93804 1.1189 2.1551 3.0438 2.5504 4.4506l2.5871 9.2081a3.4917 3.4917 37.153 0 0 3.3615 2.5472h12.257a3.4917 3.4917 142.85 0 0 3.3615-2.5472l2.5871-9.2081c0.39525-1.4068 1.6124-3.3317 2.5504-4.4506 2.8631-3.4151 4.46-7.7507 4.46-12.263 5e-5 -10.542-8.5458-19.088-19.088-19.088z" fill="#ececec" opacity=".84" stroke="#000" stroke-width=".2"/>
  <g fill="#999" stroke="#000">
   <g stroke-width=".1152">
    <rect x="96.365" y="85.254" width="14.956" height="2.6245" ry=".59892"/>
    <rect x="96.365" y="93.516" width="14.956" height="2.6245" ry=".59892"/>
    <rect x="96.365" y="89.385" width="14.956" height="2.6245" ry=".59892"/>
   </g>
   <path d="m97.941 97.647a7.7721 10.969 0 0 0 5.9025 3.8328 7.7721 10.969 0 0 0 5.9025-3.8328z" stroke-width=".115"/>
  </g>
  <path d="m103.84 36.107c-0.38237-2e-6 -0.76214 0.01142-1.139 0.03359 10.012 0.58911 17.949 8.8946 17.949 19.054 0 4.512-1.5966 8.8477-4.4597 12.263-0.93804 1.1189-2.155 3.0436-2.5502 4.4504l-2.5874 9.2082a3.4917 3.4917 0 0 1-3.3616 2.5471h2.2779a3.4917 3.4917 0 0 0 3.3616-2.5471l2.5874-9.2082c0.39525-1.4068 1.6122-3.3315 2.5502-4.4504 2.8631-3.4151 4.4597-7.7508 4.4597-12.263 5e-5 -10.542-8.5458-19.088-19.088-19.088zm4.6013 49.147c0.3318 0 0.59893 0.26713 0.59893 0.59893v1.4268c0 0.3318-0.26713 0.59893-0.59893 0.59893h2.2779c0.3318 0 0.59893-0.26713 0.59893-0.59893v-1.4268c0-0.3318-0.26713-0.59893-0.59893-0.59893zm0 4.131c0.3318 0 0.59893 0.26713 0.59893 0.59893v1.4268c0 0.3318-0.26713 0.59893-0.59893 0.59893h2.2779c0.3318 0 0.59893-0.26713 0.59893-0.59893v-1.4268c0-0.3318-0.26713-0.59893-0.59893-0.59893zm0 4.131c0.3318 0 0.59893 0.26713 0.59893 0.59893v1.4268c0 0.3318-0.26713 0.59893-0.59893 0.59893h2.2779c0.3318 0 0.59893-0.26713 0.59893-0.59893v-1.4268c0-0.3318-0.26713-0.59893-0.59893-0.59893zm-0.97668 4.131a7.7721 10.969 0 0 1-4.7635 3.7145 7.7721 10.969 0 0 0 1.139 0.11834 7.7721 10.969 0 0 0 5.9025-3.8328z" fill="#1a1a1a" opacity=".25824" stroke="#000" stroke-width=".2"/>
  <path d="m102.48 40.583c-4.0153 0.23396-7.7528 2.15-10.314 5.2847-2.5615 3.1347-3.7202 7.2059-3.2033 11.242a0.8383 0.8377 44.334 0 0 0.93846 0.72579 0.8383 0.8377 44.334 0 0 0.72516-0.93598c-0.45868-3.5818 0.57108-7.194 2.8396-9.9702 2.2686-2.7762 5.5674-4.4668 9.1126-4.6734a0.8383 0.8377 44.334 0 0 0.78826-0.8859 0.8383 0.8377 44.334 0 0-0.88644-0.78692z" fill="#fff" opacity=".84" stop-color="#000000" stroke-linecap="round"/>
  <g transform="translate(-44.45 -1.0583)">
   <g>
    <path d="m144.4 84.495 0.32182-8.4147-3.6352-18.154 2.3816-5.4606 2.3104 5.6002 3.7406 0.01523 2.4078-5.4652 2.3398 5.3104v5e-6l-3.3796 17.88 0.22029 8.6146" fill="none" stroke="#b3b3b3" stroke-linecap="square" stroke-miterlimit="4.2" stroke-width=".47701"/>
    <g stroke-linecap="round" stroke-linejoin="round">
     <path transform="scale(-1)" d="m-151.46-53.451a3.7726 13.863 0 0 1 3.7414-13.618 3.7726 13.863 0 0 1 3.8009 13.393" fill="none" stroke="#b3b3b3" stroke-width=".1219"/>
     <rect x="145.57" y="65.048" width="4.2099" height="1.1382" ry=".12169" fill="#f2f2f2" stroke="#999" stroke-width=".099359"/>
     <path d="m151.06 53.362a0.4582 0.87723 0 0 1 0.46446-0.86161 0.4582 0.87723 0 0 1 0.45185 0.88584 0.4582 0.87723 0 0 1-0.46093 0.86853 0.4582 0.87723 0 0 1-0.45545-0.87906" fill="none" stroke="#b3b3b3" stroke-width=".13289"/>
     <path d="m143.71 53.362a0.4582 0.87723 0 0 1 0.46446-0.86161 0.4582 0.87723 0 0 1 0.45185 0.88584 0.4582 0.87723 0 0 1-0.46093 0.86853 0.4582 0.87723 0 0 1-0.45545-0.87906" fill="none" stroke="#b3b3b3" stroke-width=".13289"/>
    </g>
   </g>
   <g stroke="#999">
    <path d="m147.49 66.185c0.0677 0 0.12196 0.06969 0.12196 0.15606v10.564c1.2049 0.19619 2.1458 1.8856 2.1456 3.9403l0.10387 3.8272-5.2415 0.06511v0.01344l6.2999-0.07855-0.10387-3.8272c2.1e-4 -2.0547-0.94074-3.7441-2.1456-3.9403v-10.564c0-0.08637-0.0543-0.15606-0.12196-0.15606z" fill="#1a1a1a" opacity=".13082" stroke-linecap="square" stroke-miterlimit="4.2" stroke-width=".1297"/>
    <path d="m146.83 66.185c-0.0676 0-0.122 0.06939-0.122 0.15575v10.592c-1.1452 0.2956-2.0214 1.9424-2.0213 3.9292l-0.0651 3.8887 6.3001-0.07887-0.1039-3.8268c2.1e-4 -2.0547-0.94101-3.744-2.1459-3.9402v-10.564c0-0.08637-0.0543-0.15575-0.12199-0.15575z" fill="#f2f2f2" stroke-linecap="square" stroke-miterlimit="4.2" stroke-width=".1297"/>
    <path d="m149.2 65.048c0.0342 0.01345 0.0584 0.04718 0.0584 0.0863v0.67799c0 0.05109-0.0414 0.09198-0.0925 0.09198h-3.5946v0.16071c0 0.06742 0.054 0.12144 0.12144 0.12144h3.9667c0.0674 0 0.12144-0.05402 0.12144-0.12144v-0.89504c0-0.06742-0.054-0.12196-0.12144-0.12196z" fill="#1a1a1a" opacity=".19874" stroke-linecap="round" stroke-linejoin="round" stroke-width=".099359"/>
   </g>
   <path d="m145.11 81.764a2.8914 4.9384 0 0 1 1.5853-4.3188" fill="none" opacity=".92453" stroke="#fff" stroke-linecap="round" stroke-miterlimit="4.2" stroke-width=".47914" style="mix-blend-mode:normal"/>
  </g>
 </g>
</svg>
