<?xml version="1.0" encoding="UTF-8"?>
<!-- Created with Inkscape (http://www.inkscape.org/) -->
<svg width="210mm" height="297mm" version="1.1" viewBox="0 0 210 297" xmlns="http://www.w3.org/2000/svg">
 <g transform="translate(0)">
  <g stroke-width=".26458">
   <rect x="59.496" y="33.241" width="33.241" height="30.591" fill="#9bd3ff" opacity=".84"/>
   <ellipse cx="75.876" cy="34.204" rx="9.3942" ry="8.6715" fill="#f89bff" opacity=".84"/>
   <path transform="matrix(.68456 0 0 .61849 24.841 31.696)" d="m72.985 67.927-2.5933-10.315-9.9671-3.7112 9.0084-5.6538 0.44957-10.626 8.1608 6.8204 10.245-2.8561-3.9648 9.869 5.8822 8.861-10.611-0.72102z" fill="#a9ff9b" opacity=".84"/>
  </g>
  <path transform="matrix(.81836 0 0 .78731 10.384 12.67)" d="m99.241 43.358c-0.50724 0.22947-0.55957-0.57054-0.38139-0.84307 0.48286-0.73853 1.5641-0.47884 2.0675 0.08029 0.90047 1.0002 0.46519 2.5515-0.54197 3.292-1.4781 1.0866-3.5543 0.45641-4.5164-1.0036-1.2824-1.946-0.45001-4.5627 1.4653-5.7409 2.4103-1.4826 5.5739-0.44492 6.9653 1.927 1.6853 2.8727 0.44058 6.5866-2.3887 8.1898-3.3342 1.8893-7.6003 0.43674-9.4142-2.8504-2.0942-3.7951-0.4332-8.6147 3.312-10.639 4.2556-2.2998 9.6296-0.4299 11.863 3.7737 2.5057 4.7158 0.42676 10.645-4.2354 13.088-5.1759 2.712-11.66 0.42374-14.312-4.6971" fill="none" stroke="#000" stroke-width=".26458"/>
  <rect x="51.307" y="43.839" width="17.102" height="6.5036" fill="#000080" opacity=".84" stroke-width=".2064"/>
 </g>
</svg>
